# xmcd
#
# Track frame offsets:
#	150
#	8221
#	21160
#	34594
#	41531
#	63083
#	71737
#	86120
#	109956
#	135159
#	154069
#	175941
#	193254
#	211002
#	230696
#	271921
#	280433
#	290258
#	317918
#	331398
#	349669
#
# Disc length: 4725 seconds
#
# Revision: 1
# Processed by: cddbd v1.5.2PL0 Copyright (c) Steve Scherf et al.
# Submitted via: audiograbber 1.83.01
#
DISCID=32127315
DTITLE=Georges Moustaki - Olympia
DYEAR=1977
DGENRE=Chanson francaise
TTITLE0=Homme
TTITLE1=On l'appelle folie
TTITLE2=Alexandrie
TTITLE3=Mon amour aux yeux noirs
TTITLE4=Kaimos
TTITLE5=Le meteque
TTITLE6=Sans la nommer
TTITLE7=Nous avons le temps
TTITLE8=Bahia
TTITLE9=Petite fable
TTITLE10=Flamenco
TTITLE11=Pourquoi mon Dieu
TTITLE12=Chanson cri
TTITLE13=Cantique
TTITLE14=La philisophie
TTITLE15=Pourquoi je chante
TTITLE16=Il est trop tard
TTITLE17=Donne du rhum a ton homme
TTITLE18=Marche de Sacco et Vanzetti
TTITLE19=Le facteur
TTITLE20=Et on s'en va
EXTD=
EXTT0=
EXTT1=
EXTT2=
EXTT3=
EXTT4=
EXTT5=
EXTT6=
EXTT7=
EXTT8=
EXTT9=
EXTT10=
EXTT11=
EXTT12=
EXTT13=
EXTT14=
EXTT15=
EXTT16=
EXTT17=
EXTT18=
EXTT19=
EXTT20=
PLAYORDER=
